<?xml version="1.0" encoding="UTF-8"?><svg id="Layer_2" xmlns="http://www.w3.org/2000/svg" viewBox="0 0 437.55 437.55"><defs><style>.cls-1{fill:#fff;}.cls-2{fill:#1f60c9;}</style></defs><g id="Layer_1-2"><g><rect class="cls-2" width="437.55" height="437.55" rx="57.36" ry="57.36"/><g><path class="cls-1" d="M353.58,161.82c-1.61-3.8-3.38-7.51-5.28-11.14h-49.93c16.27,18.96,25.15,42.85,25.15,68.1,0,27.98-10.9,54.28-30.68,74.07-19.78,19.78-46.09,30.68-74.07,30.68s-54.28-10.9-74.07-30.68c-19.78-19.78-30.68-46.09-30.68-74.07,0-25.25,8.88-49.13,25.15-68.1h-49.93c-1.91,3.63-3.67,7.34-5.28,11.14-7.64,18.05-11.51,37.22-11.51,56.96s3.87,38.91,11.51,56.96c7.37,17.43,17.92,33.07,31.35,46.5,13.43,13.43,29.08,23.98,46.5,31.35,18.05,7.64,37.22,11.51,56.96,11.51s38.91-3.87,56.96-11.51c17.43-7.37,33.07-17.92,46.5-31.35,13.43-13.43,23.98-29.08,31.35-46.5,7.64-18.05,11.51-37.22,11.51-56.96s-3.87-38.91-11.51-56.96Z"/><path class="cls-1" d="M194.16,116.92v173.28h49.23V116.92c8.06,1.93,15.82,4.81,23.17,8.58h64.96c-2.92-3.52-6.02-6.93-9.28-10.19-13.43-13.43-29.08-23.98-46.5-31.35-18.05-7.64-37.22-11.51-56.96-11.51s-38.91,3.87-56.96,11.51c-17.43,7.37-33.07,17.92-46.5,31.35-3.27,3.27-6.36,6.67-9.28,10.19h64.96c7.34-3.77,15.11-6.65,23.17-8.58Z"/></g></g></g></svg>