<?xml version="1.0" encoding="UTF-8"?>
<svg id="Layer_1" data-name="Layer 1" xmlns="http://www.w3.org/2000/svg" viewBox="0 0 246.32 115.14">
  <defs>
    <style>
      .cls-1 {
        fill: #6067af;
      }
    </style>
  </defs>
  <path class="cls-1" d="m14.51,38.77l3.37-4.19-10.86-8.63,10.86-8.63-3.37-4.19L1.01,23.85c-1.16.93-1.35,2.61-.42,3.77.12.15.27.3.42.42l13.5,10.73Zm24.97-25.65l-3.37,4.19,10.86,8.63-10.86,8.63,3.37,4.19,13.5-10.73c1.16-.93,1.35-2.61.42-3.77-.12-.15-.27-.3-.42-.42l-13.5-10.73Zm-4.45-10.74l-10.8,48.28-5.27-1.16L29.76,1.22l5.27,1.16Z"/>
  <g>
    <path class="cls-1" d="m63.97,0v49.07c0,1.59,1.29,2.89,2.89,2.89h49.07v-5.77h-46.19V0h-5.77Z"/>
    <path class="cls-1" d="m99.46,33.79c1.13,1.13,2.95,1.13,4.08,0h0s14.43-14.44,14.43-14.44l-4.08-4.08-12.39,12.39-6.62-6.62c-1.13-1.13-2.95-1.13-4.08,0h0s-14.43,14.44-14.43,14.44l4.08,4.08,12.39-12.39,6.62,6.62Z"/>
  </g>
  <path class="cls-1" d="m177.43,23.28h-8.1V4.38c0-1.49-1.21-2.7-2.7-2.7h-37.8c-1.49,0-2.7,1.21-2.7,2.7v37.8c0,4.47,3.63,8.1,8.1,8.1h37.8c4.47,0,8.1-3.63,8.1-8.1v-16.2c0-1.49-1.21-2.7-2.7-2.7Zm-43.2,21.6c-1.49,0-2.7-1.21-2.7-2.7V7.08h32.4v35.1c0,.95.16,1.86.46,2.7h-30.16Zm40.5-2.7c0,1.49-1.21,2.7-2.7,2.7s-2.7-1.21-2.7-2.7v-13.5h5.4v13.5Z"/>
  <path class="cls-1" d="m136.93,12.48h21.6v5.4h-21.6v-5.4Zm0,10.8h21.6v5.4h-21.6v-5.4Zm13.5,10.8h8.1v5.4h-8.1v-5.4Z"/>
  <path class="cls-1" d="m238.22,12.48c0-1.49-1.21-2.7-2.7-2.7h-21.6v5.4h18.9v13.5h-8.1l10.72,13.5,10.88-13.5h-8.1V12.48Zm-37.8,27c0,1.49,1.21,2.7,2.7,2.7h21.6v-5.4h-18.9v-13.5h8.1l-10.8-13.5-10.8,13.5h8.1v16.2Z"/>
  <path class="cls-1" d="m192.32,78.69v10.8h2.7v16.2h-2.7v8.1h51.3s0,0,0,0h2.7v-8.1h-2.7v-16.2h2.7v-10.8l-27-16.2-27,16.2Zm10.8,27v-16.2h5.4v16.2h-5.4Zm13.5,0v-16.2h5.4v16.2h-5.4Zm18.9,0h-5.4v-16.2h5.4v16.2Zm-10.8-27c0,2.98-2.42,5.4-5.4,5.4-2.98,0-5.4-2.42-5.4-5.4h0c0-2.98,2.42-5.4,5.4-5.4,2.98,0,5.4,2.42,5.4,5.4Z"/>
  <path class="cls-1" d="m129.13,91.14h18c1.66,0,3-1.34,3-3v-24c0-1.66-1.34-3-3-3h-18c-1.66,0-3,1.34-3,3v24c0,1.66,1.34,3,3,3Zm-3,21c0,1.66,1.34,3,3,3h18c1.66,0,3-1.34,3-3v-12c0-1.66-1.34-3-3-3h-18c-1.66,0-3,1.34-3,3v12Zm30,0c0,1.66,1.34,3,3,3h18c1.66,0,3-1.34,3-3v-21c0-1.66-1.34-3-3-3h-18c-1.66,0-3,1.34-3,3v21Zm3-30h18c1.66,0,3-1.34,3-3v-15c0-1.66-1.34-3-3-3h-18c-1.66,0-3,1.34-3,3v15c0,1.66,1.34,3,3,3Z"/>
  <path class="cls-1" d="m72.07,88.14h-2.7v21.6c0,2.98,2.42,5.4,5.4,5.4h13.5v-27h-16.2Zm35.1,0h-13.5v27h13.5c2.98,0,5.4-2.42,5.4-5.4v-21.6h-5.4Zm2.14-13.5c.4-1.31.59-2.68.56-4.05,0-5.21-4.24-9.45-9.45-9.45-4.38,0-7.3,4-9.19,8.33-1.86-4.09-4.93-8.33-9.71-8.33-5.21,0-9.45,4.24-9.45,9.45,0,1.61.21,2.94.56,4.05h-8.66v10.8h24.3v-5.4h5.4v5.4h24.3v-10.8h-8.66Zm-31.84-4.05c0-2.23,1.82-4.05,4.05-4.05,2.4,0,4.63,4.12,5.93,8.1h-7.28c-1.01,0-2.7,0-2.7-4.05Zm22.95-4.05c2.23,0,4.05,1.82,4.05,4.05,0,4.05-1.69,4.05-2.7,4.05h-6.69c1.38-4.26,3.38-8.1,5.34-8.1Z"/>
  <path class="cls-1" d="m21.41,89.32c6.27,0,11.37-5.1,11.37-11.37s-5.1-11.37-11.37-11.37-11.37,5.1-11.37,11.37,5.1,11.37,11.37,11.37Zm4.26,2.84h-8.53C7.74,92.17.1,99.81.1,109.22v2.84h42.63v-2.84c0-9.4-7.65-17.05-17.05-17.05Z"/>
  <path class="cls-1" d="m41.6,86.62c1.73-2.95,2.48-6.37,2.13-9.78-.51-5.07-3.34-9.55-7.97-12.62l-3.14,4.73c3.18,2.11,5.12,5.11,5.45,8.45.31,3.14-.81,6.26-3.05,8.49l-3.39,3.39,4.6,1.35c12.03,3.52,12.17,15.62,12.17,15.74h5.68c0-5.08-2.72-15.02-12.49-19.76Z"/>
</svg>