<?xml version="1.0" encoding="UTF-8"?>
<svg id="Layer_1" data-name="Layer 1" xmlns="http://www.w3.org/2000/svg" viewBox="0 0 56 56">
  <defs>
    <style>
      .cls-1 {
        fill: #6067af;
      }
    </style>
  </defs>
  <path class="cls-1" d="m15.42,40.79l3.37-4.19-10.86-8.63,10.86-8.63-3.37-4.19L1.92,25.87c-1.16.93-1.35,2.61-.42,3.77.12.15.27.3.42.42l13.5,10.73Zm24.97-25.65l-3.37,4.19,10.86,8.63-10.86,8.63,3.37,4.19,13.5-10.73c1.16-.93,1.35-2.61.42-3.77-.12-.15-.27-.3-.42-.42l-13.5-10.73Zm-4.45-10.74l-10.8,48.28-5.27-1.16L30.67,3.24l5.27,1.16Z"/>
</svg>