<?xml version="1.0" encoding="UTF-8"?>
<svg id="Layer_1" data-name="Layer 1" xmlns="http://www.w3.org/2000/svg" viewBox="0 0 56 56">
  <defs>
    <style>
      .cls-1 {
        fill: #6067af;
      }
    </style>
  </defs>
  <path class="cls-1" d="m4,31h18c1.66,0,3-1.34,3-3V4c0-1.66-1.34-3-3-3H4c-1.66,0-3,1.34-3,3v24c0,1.66,1.34,3,3,3Zm-3,21c0,1.66,1.34,3,3,3h18c1.66,0,3-1.34,3-3v-12c0-1.66-1.34-3-3-3H4c-1.66,0-3,1.34-3,3v12Zm30,0c0,1.66,1.34,3,3,3h18c1.66,0,3-1.34,3-3v-21c0-1.66-1.34-3-3-3h-18c-1.66,0-3,1.34-3,3v21Zm3-30h18c1.66,0,3-1.34,3-3V4c0-1.66-1.34-3-3-3h-18c-1.66,0-3,1.34-3,3v15c0,1.66,1.34,3,3,3Z"/>
</svg>