<?xml version="1.0" encoding="UTF-8"?>
<svg id="Layer_1" data-name="Layer 1" xmlns="http://www.w3.org/2000/svg" viewBox="0 0 56 56">
  <defs>
    <style>
      .cls-1 {
        fill: #6067af;
      }
    </style>
  </defs>
  <path class="cls-1" d="m9.1,28h-2.7v21.6c0,2.98,2.42,5.4,5.4,5.4h13.5v-27H9.1Zm35.1,0h-13.5v27h13.5c2.98,0,5.4-2.42,5.4-5.4v-21.6h-5.4Zm2.14-13.5c.4-1.31.59-2.68.56-4.05,0-5.21-4.24-9.45-9.45-9.45-4.38,0-7.3,4-9.19,8.33-1.86-4.09-4.93-8.33-9.71-8.33-5.21,0-9.45,4.24-9.45,9.45,0,1.61.21,2.94.56,4.05H1v10.8h24.3v-5.4h5.4v5.4h24.3v-10.8h-8.66Zm-31.84-4.05c0-2.23,1.82-4.05,4.05-4.05,2.4,0,4.63,4.12,5.93,8.1h-7.28c-1.01,0-2.7,0-2.7-4.05Zm22.95-4.05c2.23,0,4.05,1.82,4.05,4.05,0,4.05-1.69,4.05-2.7,4.05h-6.69c1.38-4.26,3.38-8.1,5.34-8.1Z"/>
</svg>