<?xml version="1.0" encoding="UTF-8"?>
<svg id="Layer_1" data-name="Layer 1" xmlns="http://www.w3.org/2000/svg" viewBox="0 0 56 56">
  <defs>
    <style>
      .cls-1 {
        fill: #7e81be;
      }
    </style>
  </defs>
  <path class="cls-1" d="m22.32,29.18c6.27,0,11.37-5.1,11.37-11.37s-5.1-11.37-11.37-11.37-11.37,5.1-11.37,11.37,5.1,11.37,11.37,11.37Zm4.26,2.84h-8.53c-9.4,0-17.05,7.65-17.05,17.05v2.84h42.63v-2.84c0-9.4-7.65-17.05-17.05-17.05Z"/>
  <path class="cls-1" d="m42.51,26.48c1.73-2.95,2.48-6.37,2.13-9.78-.51-5.07-3.34-9.55-7.97-12.62l-3.14,4.73c3.18,2.11,5.12,5.11,5.45,8.45.31,3.14-.81,6.26-3.05,8.49l-3.39,3.39,4.6,1.35c12.03,3.52,12.17,15.62,12.17,15.74h5.68c0-5.08-2.72-15.02-12.49-19.76Z"/>
</svg>