<?xml version="1.0" encoding="UTF-8"?>
<svg id="Layer_1" data-name="Layer 1" xmlns="http://www.w3.org/2000/svg" viewBox="0 0 56 56">
  <defs>
    <style>
      .cls-1 {
        fill: #7e81be;
      }
    </style>
  </defs>
  <path class="cls-1" d="m52.3,25.3h-8.1V6.4c0-1.49-1.21-2.7-2.7-2.7H3.7c-1.49,0-2.7,1.21-2.7,2.7v37.8c0,4.47,3.63,8.1,8.1,8.1h37.8c4.47,0,8.1-3.63,8.1-8.1v-16.2c0-1.49-1.21-2.7-2.7-2.7ZM9.1,46.9c-1.49,0-2.7-1.21-2.7-2.7V9.1h32.4v35.1c0,.95.16,1.86.46,2.7H9.1Zm40.5-2.7c0,1.49-1.21,2.7-2.7,2.7s-2.7-1.21-2.7-2.7v-13.5h5.4v13.5Z"/>
  <path class="cls-1" d="m11.8,14.5h21.6v5.4H11.8v-5.4Zm0,10.8h21.6v5.4H11.8v-5.4Zm13.5,10.8h8.1v5.4h-8.1v-5.4Z"/>
</svg>