<?xml version="1.0" encoding="UTF-8"?>
<svg id="Layer_1" data-name="Layer 1" xmlns="http://www.w3.org/2000/svg" viewBox="0 0 124 36">
  <defs>
    <style>
      .cls-1 {
        fill: #fff;
      }
    </style>
  </defs>
  <g>
    <path class="cls-1" d="m5.04,11.69h2.68v10.21h6.18l-.31,2.2H5.04v-12.41Z"/>
    <path class="cls-1" d="m17.43,19.99c0,1.17.59,2.3,1.87,2.3,1.07,0,1.38-.43,1.63-1h2.58c-.33,1.14-1.35,3.01-4.28,3.01s-4.4-2.29-4.4-4.74c0-2.92,1.5-5.01,4.49-5.01,3.2,0,4.29,2.32,4.29,4.64,0,.32,0,.52-.03.79h-6.15Zm3.6-1.58c-.02-1.08-.45-2-1.71-2s-1.73.85-1.84,2h3.55Z"/>
    <path class="cls-1" d="m33.09,21.69c0,.89.07,2.18.13,2.41h-2.47c-.07-.18-.13-.68-.13-.91-.34.52-.97,1.13-2.62,1.13-2.25,0-3.2-1.48-3.2-2.92,0-2.12,1.71-3.1,4.44-3.1h1.33v-.57c0-.66-.24-1.31-1.44-1.31-1.09,0-1.33.46-1.45,1.14h-2.45c.14-1.66,1.16-3,4-2.98,2.5.02,3.85.99,3.85,3.21v3.92Zm-2.52-1.83h-1.05c-1.56,0-2.13.47-2.13,1.37,0,.67.41,1.24,1.34,1.24,1.64,0,1.84-1.14,1.84-2.37v-.25Z"/>
    <path class="cls-1" d="m35.42,17.31c0-.93,0-1.75-.02-2.53h2.53c.03.21.07,1.13.07,1.64.41-1.06,1.41-1.84,2.99-1.85v2.46c-1.87-.05-2.99.46-2.99,3.01v4.06h-2.58v-6.79Z"/>
    <path class="cls-1" d="m42.39,17.13c0-.79,0-1.66-.02-2.35h2.5c.05.24.09.89.1,1.19.32-.59,1.07-1.4,2.7-1.4,1.87,0,3.09,1.26,3.09,3.61v5.93h-2.58v-5.64c0-1.05-.35-1.81-1.49-1.81s-1.72.61-1.72,2.25v5.19h-2.58v-6.97Z"/>
    <path class="cls-1" d="m68.13,19.44c0-2.12.03-4.49.09-5.9h-.08c-.58,2.53-1.83,6.67-3.02,10.55h-2.29c-.91-3.4-2.19-8.11-2.73-10.59h-.08c.11,1.46.16,4.01.16,6.14v4.45h-2.45v-12.41h3.99c.97,3.24,2.05,7.31,2.43,9.16h.02c.3-1.63,1.67-5.98,2.7-9.16h3.85v12.41h-2.59v-4.66Z"/>
    <path class="cls-1" d="m81.81,19.42c0,2.82-1.69,4.89-4.64,4.89s-4.58-2.06-4.58-4.84,1.74-4.91,4.7-4.91c2.74,0,4.52,1.94,4.52,4.86Zm-6.6.02c0,1.79.77,2.86,2.01,2.86s1.96-1.06,1.96-2.84c0-1.95-.72-2.87-2-2.87-1.2,0-1.98.89-1.98,2.86Z"/>
    <path class="cls-1" d="m83.57,17.31c0-.93,0-1.75-.02-2.53h2.53c.03.21.07,1.13.07,1.64.41-1.06,1.4-1.84,2.99-1.85v2.46c-1.87-.05-2.99.46-2.99,3.01v4.06h-2.58v-6.79Z"/>
    <path class="cls-1" d="m92.56,19.99c0,1.17.59,2.3,1.87,2.3,1.07,0,1.38-.43,1.63-1h2.58c-.33,1.14-1.35,3.01-4.28,3.01s-4.4-2.29-4.4-4.74c0-2.92,1.5-5.01,4.49-5.01,3.2,0,4.29,2.32,4.29,4.64,0,.32,0,.52-.03.79h-6.15Zm3.6-1.58c-.02-1.08-.45-2-1.71-2s-1.73.85-1.84,2h3.55Z"/>
  </g>
  <path class="cls-1" d="m110.84,23.29l1.41,1.41,6.71-6.71-6.71-6.71-1.41,1.41,4.29,4.29h-9.59v2h9.59l-4.29,4.29Z"/>
</svg>